<?xml version="1.0" encoding="UTF-8"?>
<svg width="16" height="16" version="1.1" xmlns="http://www.w3.org/2000/svg" xmlns:cc="http://creativecommons.org/ns#" xmlns:dc="http://purl.org/dc/elements/1.1/" xmlns:rdf="http://www.w3.org/1999/02/22-rdf-syntax-ns#">
 <metadata>
  <rdf:RDF>
   <cc:Work rdf:about="">
    <dc:format>image/svg+xml</dc:format>
    <dc:type rdf:resource="http://purl.org/dc/dcmitype/StillImage"/>
    <dc:title/>
   </cc:Work>
  </rdf:RDF>
 </metadata>
 <path d="m7.9998 1.5c-0.277 1e-7 -0.5 0.223-0.5 0.5l4e-7 5.5h-5.5c-0.277 4e-7 -0.5 0.223-0.5 0.5 4e-7 0.277 0.223 0.5 0.5 0.5l5.5-1e-7 1e-7 5.5c3e-7 0.277 0.223 0.5 0.5 0.5 0.277-3e-6 0.5-0.223 0.5-0.5v-5.5h5.5c0.277-3.2e-6 0.5-0.223 0.5-0.5-3e-6 -0.277-0.223-0.5-0.5-0.5l-5.5 4e-7 4e-7 -5.5c-4e-7 -0.277-0.223-0.5-0.5-0.5z" fill="#363636" stroke-linecap="round" stroke-linejoin="round" stroke-opacity=".08" style="paint-order:stroke markers fill"/>
</svg>
